# xmcd
#
# Track frame offsets:
#	150
#	21667
#	38699
#	67720
#	109115
#	153678
#	184379
#
# Disc length: 2989 seconds
#
# Revision: 1
# Processed by: cddbd v1.5.1PL2 Copyright (c) Steve Scherf et al.
# Submitted via: EasyCDDAExtractor 5.0.6
#
DISCID=5a0bab07
DTITLE=Jorge Tardoso - Suite indiana  - Concierto del vino
DYEAR=2004
DGENRE=latin
TTITLE0=Suite indiana 1 Argentina
TTITLE1=2 Venezuela
TTITLE2=3 Paraguay
TTITLE3=4 Brasil
TTITLE4=Concierto del vino 1
TTITLE5=Concierto del vino 2
TTITLE6=Concierto del vino 3
EXTD=
EXTT0=
EXTT1=
EXTT2=
EXTT3=
EXTT4=
EXTT5=
EXTT6=
PLAYORDER=
